<mxfile host="Electron" modified="2024-07-02T06:51:07.192Z" agent="Mozilla/5.0 (Windows NT 10.0; Win64; x64) AppleWebKit/537.36 (KHTML, like Gecko) draw.io/24.5.3 Chrome/124.0.6367.207 Electron/30.0.6 Safari/537.36" etag="BG2sPR3Sj2-bSwGhB0mC" version="24.5.3" type="device" pages="2">
  <diagram name="Page-1" id="e7e014a7-5840-1c2e-5031-d8a46d1fe8dd">
    <mxGraphModel dx="1219" dy="722" grid="0" gridSize="10" guides="1" tooltips="1" connect="1" arrows="1" fold="1" page="1" pageScale="1" pageWidth="1169" pageHeight="826" background="none" math="0" shadow="0">
      <root>
        <mxCell id="0" />
        <mxCell id="1" parent="0" />
        <mxCell id="VKfbaZEpWS_4tGn0UEHI-42" value="" style="endArrow=classic;html=1;rounded=0;exitX=0.597;exitY=0.598;exitDx=0;exitDy=0;exitPerimeter=0;entryX=0.5;entryY=0;entryDx=0;entryDy=0;" parent="1" target="VKfbaZEpWS_4tGn0UEHI-43" edge="1">
          <mxGeometry width="50" height="50" relative="1" as="geometry">
            <mxPoint x="404.14" y="120" as="sourcePoint" />
            <mxPoint x="404.03999999999996" y="170" as="targetPoint" />
          </mxGeometry>
        </mxCell>
        <mxCell id="VKfbaZEpWS_4tGn0UEHI-43" value="" style="rhombus;whiteSpace=wrap;html=1;" parent="1" vertex="1">
          <mxGeometry x="384" y="170" width="40" height="40" as="geometry" />
        </mxCell>
        <mxCell id="VKfbaZEpWS_4tGn0UEHI-44" value="" style="endArrow=classic;html=1;rounded=0;" parent="1" edge="1">
          <mxGeometry width="50" height="50" relative="1" as="geometry">
            <mxPoint x="403" y="750" as="sourcePoint" />
            <mxPoint x="403.23" y="790" as="targetPoint" />
          </mxGeometry>
        </mxCell>
        <mxCell id="VKfbaZEpWS_4tGn0UEHI-49" value="Просмотр сайта" style="strokeWidth=2;html=1;shape=mxgraph.flowchart.terminator;whiteSpace=wrap;" parent="1" vertex="1">
          <mxGeometry x="340" y="80" width="120" height="40" as="geometry" />
        </mxCell>
        <mxCell id="VKfbaZEpWS_4tGn0UEHI-50" value="" style="endArrow=classic;html=1;rounded=0;entryX=1;entryY=0.5;entryDx=0;entryDy=0;entryPerimeter=0;" parent="1" target="VKfbaZEpWS_4tGn0UEHI-55" edge="1">
          <mxGeometry width="50" height="50" relative="1" as="geometry">
            <mxPoint x="384" y="189.73000000000002" as="sourcePoint" />
            <mxPoint x="280" y="190" as="targetPoint" />
          </mxGeometry>
        </mxCell>
        <mxCell id="VKfbaZEpWS_4tGn0UEHI-52" value="[авторизован]" style="text;html=1;align=center;verticalAlign=middle;resizable=0;points=[];autosize=1;strokeColor=none;fillColor=none;" parent="1" vertex="1">
          <mxGeometry x="400" y="210" width="100" height="30" as="geometry" />
        </mxCell>
        <mxCell id="VKfbaZEpWS_4tGn0UEHI-53" value="[не авторизован]" style="text;html=1;align=center;verticalAlign=middle;resizable=0;points=[];autosize=1;strokeColor=none;fillColor=none;" parent="1" vertex="1">
          <mxGeometry x="274" y="160" width="120" height="30" as="geometry" />
        </mxCell>
        <mxCell id="VKfbaZEpWS_4tGn0UEHI-54" value="Работа в личном кабинете" style="strokeWidth=2;html=1;shape=mxgraph.flowchart.terminator;whiteSpace=wrap;" parent="1" vertex="1">
          <mxGeometry x="340" y="260" width="120" height="40" as="geometry" />
        </mxCell>
        <mxCell id="VKfbaZEpWS_4tGn0UEHI-55" value="Авторизация" style="strokeWidth=2;html=1;shape=mxgraph.flowchart.terminator;whiteSpace=wrap;" parent="1" vertex="1">
          <mxGeometry x="190" y="170" width="94" height="40" as="geometry" />
        </mxCell>
        <mxCell id="VKfbaZEpWS_4tGn0UEHI-57" value="" style="html=1;points=[[0,0,0,0,5],[0,1,0,0,-5],[1,0,0,0,5],[1,1,0,0,-5]];perimeter=orthogonalPerimeter;outlineConnect=0;targetShapes=umlLifeline;portConstraint=eastwest;newEdgeStyle={&quot;curved&quot;:0,&quot;rounded&quot;:0};fillColor=#080808;direction=south;" parent="1" vertex="1">
          <mxGeometry x="160" y="350" width="480" height="10" as="geometry" />
        </mxCell>
        <mxCell id="VKfbaZEpWS_4tGn0UEHI-58" value="" style="endArrow=classic;html=1;rounded=0;" parent="1" edge="1">
          <mxGeometry width="50" height="50" relative="1" as="geometry">
            <mxPoint x="403.5" y="210" as="sourcePoint" />
            <mxPoint x="403.5" y="260" as="targetPoint" />
          </mxGeometry>
        </mxCell>
        <mxCell id="VKfbaZEpWS_4tGn0UEHI-59" value="" style="endArrow=classic;html=1;rounded=0;exitX=0.5;exitY=1;exitDx=0;exitDy=0;exitPerimeter=0;entryX=0;entryY=0.5;entryDx=0;entryDy=0;entryPerimeter=0;" parent="1" source="VKfbaZEpWS_4tGn0UEHI-55" target="VKfbaZEpWS_4tGn0UEHI-54" edge="1">
          <mxGeometry width="50" height="50" relative="1" as="geometry">
            <mxPoint x="300" y="279.58000000000004" as="sourcePoint" />
            <mxPoint x="350" y="279.58000000000004" as="targetPoint" />
            <Array as="points">
              <mxPoint x="237" y="280" />
            </Array>
          </mxGeometry>
        </mxCell>
        <mxCell id="VKfbaZEpWS_4tGn0UEHI-60" value="" style="endArrow=classic;html=1;rounded=0;" parent="1" edge="1">
          <mxGeometry width="50" height="50" relative="1" as="geometry">
            <mxPoint x="404.5" y="300" as="sourcePoint" />
            <mxPoint x="404.5" y="350" as="targetPoint" />
          </mxGeometry>
        </mxCell>
        <mxCell id="VKfbaZEpWS_4tGn0UEHI-61" value="Внесение денежных средств" style="strokeWidth=2;html=1;shape=mxgraph.flowchart.terminator;whiteSpace=wrap;" parent="1" vertex="1">
          <mxGeometry x="133" y="413" width="135" height="40" as="geometry" />
        </mxCell>
        <mxCell id="VKfbaZEpWS_4tGn0UEHI-62" value="Присоединение к курсу" style="strokeWidth=2;html=1;shape=mxgraph.flowchart.terminator;whiteSpace=wrap;" parent="1" vertex="1">
          <mxGeometry x="344" y="410" width="120" height="40" as="geometry" />
        </mxCell>
        <mxCell id="VKfbaZEpWS_4tGn0UEHI-63" value="Обращение в техподдержку" style="strokeWidth=2;html=1;shape=mxgraph.flowchart.terminator;whiteSpace=wrap;" parent="1" vertex="1">
          <mxGeometry x="550" y="410" width="120" height="40" as="geometry" />
        </mxCell>
        <mxCell id="VKfbaZEpWS_4tGn0UEHI-64" value="" style="endArrow=classic;html=1;rounded=0;" parent="1" edge="1">
          <mxGeometry width="50" height="50" relative="1" as="geometry">
            <mxPoint x="403.5" y="360" as="sourcePoint" />
            <mxPoint x="403.5" y="410" as="targetPoint" />
          </mxGeometry>
        </mxCell>
        <mxCell id="VKfbaZEpWS_4tGn0UEHI-65" value="" style="endArrow=classic;html=1;rounded=0;" parent="1" edge="1">
          <mxGeometry width="50" height="50" relative="1" as="geometry">
            <mxPoint x="610" y="360" as="sourcePoint" />
            <mxPoint x="610" y="410" as="targetPoint" />
          </mxGeometry>
        </mxCell>
        <mxCell id="VKfbaZEpWS_4tGn0UEHI-66" value="" style="endArrow=classic;html=1;rounded=0;" parent="1" edge="1">
          <mxGeometry width="50" height="50" relative="1" as="geometry">
            <mxPoint x="190" y="363" as="sourcePoint" />
            <mxPoint x="190" y="413" as="targetPoint" />
          </mxGeometry>
        </mxCell>
        <mxCell id="VKfbaZEpWS_4tGn0UEHI-67" value="Добавить курс в избранные&amp;nbsp;" style="strokeWidth=2;html=1;shape=mxgraph.flowchart.terminator;whiteSpace=wrap;" parent="1" vertex="1">
          <mxGeometry x="213.5" y="560" width="120" height="40" as="geometry" />
        </mxCell>
        <mxCell id="VKfbaZEpWS_4tGn0UEHI-68" value="" style="endArrow=classic;html=1;rounded=0;" parent="1" target="VKfbaZEpWS_4tGn0UEHI-84" edge="1">
          <mxGeometry width="50" height="50" relative="1" as="geometry">
            <mxPoint x="403.8" y="450" as="sourcePoint" />
            <mxPoint x="403.8" y="500" as="targetPoint" />
          </mxGeometry>
        </mxCell>
        <mxCell id="VKfbaZEpWS_4tGn0UEHI-69" value="" style="ellipse;html=1;shape=endState;fillColor=#000000;strokeColor=#000000;" parent="1" vertex="1">
          <mxGeometry x="389" y="790" width="30" height="30" as="geometry" />
        </mxCell>
        <mxCell id="VKfbaZEpWS_4tGn0UEHI-71" value="Получение сертификата" style="strokeWidth=2;html=1;shape=mxgraph.flowchart.terminator;whiteSpace=wrap;" parent="1" vertex="1">
          <mxGeometry x="474.5" y="560" width="120" height="40" as="geometry" />
        </mxCell>
        <mxCell id="VKfbaZEpWS_4tGn0UEHI-72" value="Оставить комментарии под курсом&amp;nbsp;" style="strokeWidth=2;html=1;shape=mxgraph.flowchart.terminator;whiteSpace=wrap;" parent="1" vertex="1">
          <mxGeometry x="344" y="560" width="120" height="40" as="geometry" />
        </mxCell>
        <mxCell id="VKfbaZEpWS_4tGn0UEHI-73" value="" style="html=1;points=[[0,0,0,0,5],[0,1,0,0,-5],[1,0,0,0,5],[1,1,0,0,-5]];perimeter=orthogonalPerimeter;outlineConnect=0;targetShapes=umlLifeline;portConstraint=eastwest;newEdgeStyle={&quot;curved&quot;:0,&quot;rounded&quot;:0};fillColor=#080808;direction=south;" parent="1" vertex="1">
          <mxGeometry x="160" y="650" width="480" height="10" as="geometry" />
        </mxCell>
        <mxCell id="VKfbaZEpWS_4tGn0UEHI-74" value="" style="endArrow=classic;html=1;rounded=0;" parent="1" edge="1">
          <mxGeometry width="50" height="50" relative="1" as="geometry">
            <mxPoint x="533.5899999999999" y="510" as="sourcePoint" />
            <mxPoint x="533.5899999999999" y="560" as="targetPoint" />
          </mxGeometry>
        </mxCell>
        <mxCell id="VKfbaZEpWS_4tGn0UEHI-75" value="" style="endArrow=classic;html=1;rounded=0;" parent="1" edge="1">
          <mxGeometry width="50" height="50" relative="1" as="geometry">
            <mxPoint x="403.09000000000003" y="510" as="sourcePoint" />
            <mxPoint x="403.09000000000003" y="560" as="targetPoint" />
          </mxGeometry>
        </mxCell>
        <mxCell id="VKfbaZEpWS_4tGn0UEHI-76" value="" style="endArrow=classic;html=1;rounded=0;" parent="1" edge="1">
          <mxGeometry width="50" height="50" relative="1" as="geometry">
            <mxPoint x="274" y="510" as="sourcePoint" />
            <mxPoint x="274" y="560" as="targetPoint" />
          </mxGeometry>
        </mxCell>
        <mxCell id="VKfbaZEpWS_4tGn0UEHI-77" value="" style="ellipse;html=1;shape=startState;fillColor=#000000;strokeColor=#000000;" parent="1" vertex="1">
          <mxGeometry x="389" y="10" width="30" height="30" as="geometry" />
        </mxCell>
        <mxCell id="VKfbaZEpWS_4tGn0UEHI-78" value="" style="edgeStyle=orthogonalEdgeStyle;html=1;verticalAlign=bottom;endArrow=classic;endSize=8;strokeColor=#000000;rounded=0;entryX=0.535;entryY=0.01;entryDx=0;entryDy=0;entryPerimeter=0;endFill=1;" parent="1" source="VKfbaZEpWS_4tGn0UEHI-77" target="VKfbaZEpWS_4tGn0UEHI-49" edge="1">
          <mxGeometry relative="1" as="geometry">
            <mxPoint x="445" y="500" as="targetPoint" />
          </mxGeometry>
        </mxCell>
        <mxCell id="VKfbaZEpWS_4tGn0UEHI-79" value="" style="endArrow=classic;html=1;rounded=0;exitX=0.5;exitY=1;exitDx=0;exitDy=0;exitPerimeter=0;" parent="1" source="VKfbaZEpWS_4tGn0UEHI-63" target="VKfbaZEpWS_4tGn0UEHI-73" edge="1">
          <mxGeometry width="50" height="50" relative="1" as="geometry">
            <mxPoint x="540" y="450" as="sourcePoint" />
            <mxPoint x="630.8205003004807" y="640" as="targetPoint" />
            <Array as="points">
              <mxPoint x="610" y="480" />
              <mxPoint x="610" y="510" />
            </Array>
          </mxGeometry>
        </mxCell>
        <mxCell id="VKfbaZEpWS_4tGn0UEHI-80" value="" style="endArrow=classic;html=1;rounded=0;exitX=0.473;exitY=0.98;exitDx=0;exitDy=0;exitPerimeter=0;" parent="1" source="VKfbaZEpWS_4tGn0UEHI-61" target="VKfbaZEpWS_4tGn0UEHI-73" edge="1">
          <mxGeometry width="50" height="50" relative="1" as="geometry">
            <mxPoint x="200" y="430" as="sourcePoint" />
            <mxPoint x="180" y="640" as="targetPoint" />
            <Array as="points">
              <mxPoint x="197" y="480" />
              <mxPoint x="197" y="560" />
            </Array>
          </mxGeometry>
        </mxCell>
        <mxCell id="VKfbaZEpWS_4tGn0UEHI-81" value="" style="endArrow=classic;html=1;rounded=0;" parent="1" edge="1">
          <mxGeometry width="50" height="50" relative="1" as="geometry">
            <mxPoint x="533.73" y="600" as="sourcePoint" />
            <mxPoint x="533.73" y="650" as="targetPoint" />
          </mxGeometry>
        </mxCell>
        <mxCell id="VKfbaZEpWS_4tGn0UEHI-82" value="" style="endArrow=classic;html=1;rounded=0;" parent="1" edge="1">
          <mxGeometry width="50" height="50" relative="1" as="geometry">
            <mxPoint x="403.23" y="600" as="sourcePoint" />
            <mxPoint x="403.23" y="650" as="targetPoint" />
          </mxGeometry>
        </mxCell>
        <mxCell id="VKfbaZEpWS_4tGn0UEHI-83" value="" style="endArrow=classic;html=1;rounded=0;" parent="1" edge="1">
          <mxGeometry width="50" height="50" relative="1" as="geometry">
            <mxPoint x="274" y="600" as="sourcePoint" />
            <mxPoint x="274" y="650" as="targetPoint" />
          </mxGeometry>
        </mxCell>
        <mxCell id="VKfbaZEpWS_4tGn0UEHI-84" value="" style="html=1;points=[[0,0,0,0,5],[0,1,0,0,-5],[1,0,0,0,5],[1,1,0,0,-5]];perimeter=orthogonalPerimeter;outlineConnect=0;targetShapes=umlLifeline;portConstraint=eastwest;newEdgeStyle={&quot;curved&quot;:0,&quot;rounded&quot;:0};fillColor=#080808;direction=south;" parent="1" vertex="1">
          <mxGeometry x="254" y="510" width="320" height="10" as="geometry" />
        </mxCell>
        <mxCell id="NzqEJZs-ORx3xPb4xVTt-1" value="" style="endArrow=classic;html=1;rounded=0;" parent="1" edge="1">
          <mxGeometry width="50" height="50" relative="1" as="geometry">
            <mxPoint x="403.74" y="660" as="sourcePoint" />
            <mxPoint x="403.74" y="710" as="targetPoint" />
          </mxGeometry>
        </mxCell>
        <mxCell id="NzqEJZs-ORx3xPb4xVTt-2" value="Работа с сайтом от лица ученика" style="strokeWidth=2;html=1;shape=mxgraph.flowchart.terminator;whiteSpace=wrap;" parent="1" vertex="1">
          <mxGeometry x="344" y="710" width="120" height="40" as="geometry" />
        </mxCell>
      </root>
    </mxGraphModel>
  </diagram>
  <diagram id="P0EHUWBMWkozKbqlEs-G" name="Страница — 2">
    <mxGraphModel grid="1" page="1" gridSize="10" guides="1" tooltips="1" connect="1" arrows="1" fold="1" pageScale="1" pageWidth="827" pageHeight="1169" math="0" shadow="0">
      <root>
        <mxCell id="0" />
        <mxCell id="1" parent="0" />
      </root>
    </mxGraphModel>
  </diagram>
</mxfile>
